<svg width="1096" height="542" viewBox="0 0 1096 542" fill="none" xmlns="http://www.w3.org/2000/svg">
<path d="M1 1V540.459C7.80111 545.805 57.8504 509.781 57.8504 509.781C57.8504 509.781 104.319 456.946 122.116 438.356C139.913 419.766 159.687 528.371 187.341 474.558C205.889 424.271 206.156 354.211 206.156 354.211C206.156 354.211 365.88 435.775 361.382 333.708C360.184 306.522 349.518 249.292 349.518 249.292C349.518 249.292 403.75 317.873 453.826 342.47C499.666 364.987 497.676 223.541 522.047 240.225C646.402 325.355 564.561 378.69 613.007 388.945C661.454 399.201 654.038 305.406 684.688 327.794C715.338 350.182 786.047 374.221 824.095 354.211C882.578 323.455 1015.55 360.351 1008.49 333.708C1003.45 314.693 960.515 294.921 911.101 278.102C838.091 253.25 824.095 201.088 824.095 201.088C824.095 201.088 949.51 207.83 982.288 179.073C1003.69 160.298 967.264 99.9747 866.115 81.2307C862.881 68.7486 966.963 66.5981 1048.04 88.0797C1129.11 109.561 1069.47 12.5568 1095 1H1Z" fill="#D9D9D9" stroke="black"/>
</svg>
