<svg width="891" height="1926" viewBox="0 0 891 1926" fill="none" xmlns="http://www.w3.org/2000/svg">
<g clip-path="url(#clip0_1262_13379)">
<mask id="mask0_1262_13379" style="mask-type:luminance" maskUnits="userSpaceOnUse" x="0" y="0" width="891" height="1926">
<path d="M0 -2.28882e-05H891V1926H0V-2.28882e-05Z" fill="white"/>
</mask>
<g mask="url(#mask0_1262_13379)">
<path d="M885.365 1926C825.834 1712.62 753.938 1492.79 701.471 1270.62C658.724 1089.44 629.718 909.74 627.174 760.725C624.73 613.794 647.486 493.871 678.608 395.337C709.542 297.416 746.259 222.771 765.69 126.166C772.974 89.8768 776.391 47.0136 775.831 -2.28882e-05" stroke="#006A90" stroke-opacity="0.6" stroke-width="1.33333"/>
<path d="M860.866 1926C800.499 1704.55 728.213 1478.25 678.352 1249.8C639.325 1070.86 615.881 893.349 619.475 751.23C623.135 608.016 652.386 496.581 688.162 403.198C723.434 311.328 762.577 241.029 781.664 144.697C789.6 104.534 791.946 54.9199 788.974 -2.28882e-05" stroke="#006A90" stroke-opacity="0.6" stroke-width="1.33333"/>
<path d="M837.632 1926C775.488 1695.6 702.313 1462.6 655.068 1227.89C619.481 1050.89 601.654 875.749 611.219 740.48C621.1 601.278 656.655 498.173 697.185 410.135C736.673 324.277 778.295 258.482 797.053 162.538C805.543 119.001 806.413 62.7009 800.583 -2.28882e-05" stroke="#006A90" stroke-opacity="0.6" stroke-width="1.33333"/>
<path d="M815.839 1926C751.005 1685.93 676.458 1445.96 631.852 1205.19C599.422 1029.88 587.206 857.291 602.554 728.721C618.706 593.805 660.43 498.985 705.717 416.25C749.363 336.565 793.437 275.203 811.856 179.667C820.79 133.173 819.823 70.2669 810.804 -2.28882e-05" stroke="#006A90" stroke-opacity="0.6" stroke-width="1.33333"/>
<path d="M795.643 1926C727.275 1675.71 650.861 1428.5 608.902 1182.02C579.347 1008.1 572.725 838.356 593.623 716.193C616.041 585.812 663.749 499.017 713.787 421.621C761.439 347.97 807.983 291.17 826.057 196.083C835.359 147.002 832.22 77.5921 819.764 -2.28882e-05" stroke="#006A90" stroke-opacity="0.6" stroke-width="1.33333"/>
<path d="M777.101 1926C704.462 1665.12 625.716 1410.38 586.381 1158.62C559.446 985.81 558.286 819.07 584.563 703.109C613.139 577.392 666.664 498.333 721.418 426.336C772.937 358.592 821.9 306.333 839.649 211.77C849.247 160.423 843.688 84.6252 827.647 -2.28882e-05" stroke="#006A90" stroke-opacity="0.6" stroke-width="1.33333"/>
<path d="M760.236 1926C682.718 1654.35 601.191 1391.82 564.439 1135.23C539.876 963.27 544.044 799.739 575.494 689.659C610.119 568.77 669.234 497.059 728.643 430.471C783.893 368.524 835.213 320.759 852.635 226.732C862.462 173.388 854.253 91.3662 834.538 -2.28882e-05" stroke="#006A90" stroke-opacity="0.6" stroke-width="1.33333"/>
<path d="M744.997 1926C662.131 1643.56 577.423 1373.02 543.19 1112.04C520.779 940.713 530.114 780.553 566.501 676.02C606.998 559.968 671.554 495.444 735.481 434.104C794.279 377.724 847.897 334.437 864.995 240.946C875.001 185.843 863.975 97.783 840.573 -2.28882e-05" stroke="#006A90" stroke-opacity="0.6" stroke-width="1.33333"/>
<path d="M731.314 1926C642.781 1632.87 554.555 1354.2 522.735 1089.24C502.289 918.349 516.557 761.621 557.689 662.367C603.85 551.154 673.608 493.361 741.952 437.282C774.177 410.906 804.288 386.632 829.319 356.185C851.428 329.218 868.948 297.695 876.732 254.421C886.882 197.784 872.907 103.879 845.85 -2.28882e-05" stroke="#006A90" stroke-opacity="0.6" stroke-width="1.33333"/>
<path d="M719.053 1926C692.32 1839.75 665.467 1753.47 639.66 1666.47C577.366 1456.41 523.248 1250.18 503.149 1066.99C484.488 896.367 503.478 743.15 549.12 648.837C600.718 542.378 675.474 491.04 748.055 440.068C782.024 416.199 813.532 394.249 839.552 365.51C862.326 340.263 880.247 309.98 887.832 267.146C898.085 209.141 881.089 109.618 850.458 -2.28882e-05" stroke="#006A90" stroke-opacity="0.6" stroke-width="1.33333"/>
<path d="M892.304 156.173C884.237 109.207 871.001 55.7994 854.469 1.80618e-06" stroke="#006A90" stroke-opacity="0.6" stroke-width="1.33333"/>
<path d="M708.36 1926C678.862 1833.32 649.379 1740.77 621.242 1647.46C557.488 1435.93 502.793 1227.67 484.517 1045.44C467.49 874.956 490.946 725.242 540.874 635.57C597.668 533.797 677.15 488.459 753.811 442.508C789.432 421.056 822.288 401.439 849.217 374.225C867.739 355.511 883.046 333.355 892.304 303.913" stroke="#006A90" stroke-opacity="0.6" stroke-width="1.33333"/>
<path d="M892.304 125.669C883.388 86.4171 871.63 43.8846 857.965 0.000705472" stroke="#006A90" stroke-opacity="0.6" stroke-width="1.33333"/>
<path d="M698.854 1926C666.586 1827.16 634.481 1728.63 604.05 1629.27C538.85 1416.35 483.505 1206.03 466.888 1024.7C451.338 854.249 479.005 707.969 532.993 622.682C594.708 525.416 678.705 485.85 759.218 444.646C796.424 425.605 830.486 407.972 858.303 382.34C871.639 370.039 883.319 355.912 892.303 338.575" stroke="#006A90" stroke-opacity="0.6" stroke-width="1.33333"/>
<path d="M892.303 105.876C883.461 72.171 872.838 36.5208 860.984 0.00063778" stroke="#006A90" stroke-opacity="0.6" stroke-width="1.33333"/>
<path d="M690.432 1926C655.419 1821.29 620.738 1717.07 588.071 1611.99C521.466 1397.71 465.426 1185.4 450.32 1004.92C436.123 834.42 467.712 691.447 525.533 610.282C591.87 517.298 680.128 483.172 764.274 446.517C802.955 429.716 838.161 414.006 866.798 389.858C876.243 381.871 884.868 372.973 892.303 362.663" stroke="#006A90" stroke-opacity="0.6" stroke-width="1.33333"/>
<path d="M892.304 91.3857C883.823 61.9533 874.145 31.2689 863.627 0.000276698" stroke="#006A90" stroke-opacity="0.6" stroke-width="1.33333"/>
<path d="M682.999 1926C645.304 1815.72 608.114 1706.14 573.279 1595.67C505.337 1380.09 448.582 1165.86 434.844 986.179C421.873 815.578 457.146 675.853 518.536 598.472C589.196 509.552 681.431 480.482 768.994 448.151C809.025 433.376 845.304 419.541 874.705 396.804C880.966 391.957 886.866 386.693 892.303 380.886" stroke="#006A90" stroke-opacity="0.6" stroke-width="1.33333"/>
<path d="M892.303 80.3652C884.266 54.2808 875.383 27.3488 865.904 -0.000361062" stroke="#006A90" stroke-opacity="0.6" stroke-width="1.33333"/>
<path d="M676.449 1926C636.164 1810.5 596.563 1695.89 559.665 1580.36C490.458 1363.59 432.999 1147.53 420.509 968.605C408.654 797.845 447.307 661.148 512.028 587.33C586.704 502.259 682.64 477.866 773.363 449.583C814.649 436.714 851.922 424.661 882.01 403.173C885.562 400.643 889 397.976 892.304 395.151" stroke="#006A90" stroke-opacity="0.6" stroke-width="1.33333"/>
<path d="M892.303 69.2881C884.749 46.8662 876.608 23.7927 867.998 0.000169728" stroke="#006A90" stroke-opacity="0.6" stroke-width="1.33333"/>
<path d="M670.734 1926C627.974 1805.62 586.078 1686.37 547.231 1566.15C476.847 1348.26 418.713 1130.5 407.329 952.262C401.932 867.149 407.957 788.771 424.074 728.439C441.641 662.724 470.599 613.855 506.029 576.927C584.412 495.447 683.736 475.279 777.383 450.838C819.819 439.747 857.959 429.167 888.711 408.98C889.921 408.183 891.121 407.365 892.304 406.534" stroke="#006A90" stroke-opacity="0.6" stroke-width="1.33333"/>
<path d="M892.303 62.9414C885.176 42.5194 877.595 21.555 869.645 -0.000177347" stroke="#006A90" stroke-opacity="0.6" stroke-width="1.33333"/>
<path d="M665.752 1926C620.672 1801.13 576.625 1677.59 535.955 1553.06C464.499 1334.19 405.705 1114.82 395.342 937.246C390.397 852.207 397.351 774.425 414.49 715.111C433.284 650.237 463.642 602.742 500.565 567.342C582.33 489.182 684.754 472.949 781.044 451.926C823.373 442.685 861.421 433.828 892.303 415.718" stroke="#006A90" stroke-opacity="0.6" stroke-width="1.33333"/>
<path d="M892.303 57.8672C885.556 39.0534 878.451 19.7806 871.045 0.00059321" stroke="#006A90" stroke-opacity="0.6" stroke-width="1.33333"/>
<path d="M661.459 1926C614.227 1797.04 568.195 1669.61 525.853 1541.18C453.429 1321.39 394.044 1100.59 384.563 923.607C380.05 838.661 387.801 761.348 405.869 703C425.755 638.851 457.371 592.601 495.654 558.617C580.433 483.375 685.676 470.779 784.342 452.867C825.134 445.542 861.917 438.309 892.303 423.142" stroke="#006A90" stroke-opacity="0.6" stroke-width="1.33333"/>
<path d="M892.303 53.749C885.895 36.2417 879.19 18.3395 872.234 0.000723238" stroke="#006A90" stroke-opacity="0.6" stroke-width="1.33333"/>
<path d="M657.78 1926C608.596 1793.39 560.766 1662.48 516.918 1530.56C443.635 1309.98 383.726 1087.88 375.018 911.438C370.86 826.54 379.351 749.721 398.224 692.176C419.069 628.653 451.841 583.655 491.307 550.82C578.784 478.277 686.486 468.711 787.272 453.663C826.704 447.747 862.399 441.927 892.303 429.139" stroke="#006A90" stroke-opacity="0.6" stroke-width="1.33333"/>
<path d="M892.303 50.4326C886.182 33.9878 879.811 17.1867 873.227 0.00031129" stroke="#006A90" stroke-opacity="0.6" stroke-width="1.33333"/>
<path d="M654.683 1926C603.766 1790.18 554.34 1656.21 509.162 1521.24C435.132 1299.98 374.752 1076.75 366.717 900.771C362.876 815.931 372.006 739.549 391.576 682.693C413.274 619.777 447.002 575.694 487.524 543.973C577.336 473.735 687.205 466.92 789.83 454.347C828.122 449.705 862.876 444.977 892.303 433.992" stroke="#006A90" stroke-opacity="0.6" stroke-width="1.33333"/>
<path d="M892.304 47.7783C886.423 32.1809 880.326 16.2626 874.041 0.000772634" stroke="#006A90" stroke-opacity="0.6" stroke-width="1.33333"/>
<path d="M652.132 1926C599.715 1787.41 548.912 1650.86 502.583 1513.26C427.922 1291.42 367.132 1067.21 359.673 891.658C356.107 806.869 365.775 730.866 385.93 674.588C408.358 612.195 442.91 568.95 484.318 538.137C576.128 469.906 687.824 465.405 792.007 454.908C829.323 451.117 863.293 447.314 892.304 437.806" stroke="#006A90" stroke-opacity="0.6" stroke-width="1.33333"/>
<path d="M892.303 45.6943C886.617 30.7646 880.741 15.5396 874.695 2.90221e-05" stroke="#006A90" stroke-opacity="0.6" stroke-width="1.33333"/>
<path d="M650.079 1926C596.416 1785.14 544.469 1646.44 497.194 1506.68C422.011 1284.37 360.908 1059.38 353.893 884.156C350.543 799.396 360.651 723.669 381.309 667.908C404.312 605.9 439.563 563.413 481.693 533.316C575.13 466.705 688.342 464.163 793.796 455.361C830.336 452.35 863.653 449.182 892.303 440.768" stroke="#006A90" stroke-opacity="0.6" stroke-width="1.33333"/>
<path d="M892.303 44.1504C886.766 29.7214 881.055 15.0099 875.189 -3.75287e-05" stroke="#006A90" stroke-opacity="0.6" stroke-width="1.33333"/>
<path d="M648.519 1926C593.871 1783.36 541.022 1642.96 492.992 1501.53C417.413 1278.84 356.022 1053.21 349.393 878.282C346.222 793.557 356.658 718.042 377.701 662.685C401.167 600.995 436.941 559.002 479.648 529.534C574.369 464.243 688.735 463.071 795.19 455.714C831.12 453.169 863.942 450.536 892.304 442.961" stroke="#006A90" stroke-opacity="0.6" stroke-width="1.33333"/>
<path d="M892.304 43.0596C886.874 28.9773 881.281 14.6286 875.541 0.000625099" stroke="#006A90" stroke-opacity="0.6" stroke-width="1.33333"/>
<path d="M647.407 1926C592.053 1782.07 538.552 1640.48 489.989 1497.83C414.115 1274.88 352.525 1048.79 346.172 874.064C343.106 789.336 353.829 714.078 375.124 658.936C398.927 597.497 435.067 555.844 478.187 526.829C573.797 462.381 689.032 462.426 796.191 455.955C831.7 453.865 864.159 451.532 892.303 444.489" stroke="#006A90" stroke-opacity="0.6" stroke-width="1.33333"/>
<path d="M892.303 42.4072C886.938 28.5336 881.414 14.4032 875.75 -7.92393e-05" stroke="#006A90" stroke-opacity="0.6" stroke-width="1.33333"/>
<path d="M646.749 1926C590.965 1781.3 537.071 1638.98 488.187 1495.6C412.144 1272.49 350.46 1046.15 344.237 871.531C341.261 786.835 352.1 711.619 373.571 656.676C397.569 595.365 433.955 554.021 477.312 525.211C573.491 461.386 689.202 461.967 796.793 456.096C832.038 454.17 864.282 452.042 892.304 445.346" stroke="#006A90" stroke-opacity="0.6" stroke-width="1.33333"/>
<mask id="mask1_1262_13379" style="mask-type:luminance" maskUnits="userSpaceOnUse" x="-1" y="-1" width="811" height="1928">
<path d="M-0.0722656 -0.169973H809.766V1926.92H-0.0722656V-0.169973Z" fill="white"/>
</mask>
<g mask="url(#mask1_1262_13379)">
<g opacity="0.199997">
<path d="M0 302.215C38.5179 309.913 76.482 319.674 113.545 332.466C258.204 382.532 386.596 478.203 468.846 631.452C549.873 782.771 588.136 991.312 605.58 1205.36C622.907 1418.09 621.327 1625.4 650.911 1797.18C658.939 1843.69 671.058 1887.01 686.826 1926" stroke="#006A90" stroke-opacity="0.6" stroke-width="1.16267"/>
<path d="M0 227.904C51.4835 239.447 101.984 254.579 150.676 275.662C289.952 336.084 410.913 448.485 482.576 615.325C554.746 783.577 581.173 1005.21 590.628 1229.65C599.852 1450.71 593.226 1661.62 623.048 1831.92C628.929 1865.4 637.332 1896.88 647.995 1926" stroke="#006A90" stroke-opacity="0.6" stroke-width="1.16267"/>
<path d="M0 151.734C64.9999 167.18 128.395 188.145 188.565 219.477C322.924 289.597 436.309 418.725 497.601 598.633C560.628 783.908 575.516 1018.15 576.774 1253.12C578.045 1482.13 566.226 1696.66 596.214 1865.41C599.986 1886.58 604.935 1906.8 610.969 1926" stroke="#006A90" stroke-opacity="0.6" stroke-width="1.16267"/>
<path d="M0 75.377C79.0302 94.3353 155.566 121.094 226.8 164.378C356.713 243.514 462.413 389.148 513.624 581.642C567.303 783.795 570.834 1030.24 563.906 1275.78C557.212 1512.37 540.265 1730.51 570.42 1897.65C572.173 1907.33 574.209 1916.78 576.516 1926" stroke="#006A90" stroke-opacity="0.6" stroke-width="1.16267"/>
<path d="M3.01953 1.21979C95.4831 22.8327 184.243 54.7497 264.99 110.719C390.922 198.221 488.806 359.976 530.347 564.581C574.562 783.333 567.078 1041.61 551.96 1297.67C537.606 1540.2 515.612 1760.82 545.211 1926" stroke="#006A90" stroke-opacity="0.6" stroke-width="1.16267"/>
<path d="M212.793 1.21979C243.865 17.3886 273.942 36.3436 302.814 58.759C425.206 154.067 515.336 331.333 547.522 547.681C582.317 782.521 564.159 1052.37 540.855 1318.77C520.331 1553.36 495.106 1765.5 516.865 1926" stroke="#006A90" stroke-opacity="0.6" stroke-width="1.16267"/>
<path d="M330.955 1.21979C333.98 3.70433 336.99 6.23068 339.985 8.79868C459.252 111.32 541.675 303.412 564.9 531.123C590.309 781.519 561.942 1062.58 530.512 1339.09C504.777 1565.67 476.605 1769.79 491.103 1926" stroke="#006A90" stroke-opacity="0.6" stroke-width="1.16267"/>
<path d="M413.789 1.21979C508.764 116.783 569.225 303.107 582.292 515.057C598.514 780.357 560.194 1072.31 520.878 1358.65C490.843 1577.25 460.022 1773.79 467.904 1926" stroke="#006A90" stroke-opacity="0.6" stroke-width="1.16267"/>
<path d="M476.95 1.21979C551.125 124.365 594.313 302.674 599.494 499.614C606.757 779.118 558.991 1081.64 511.901 1377.42C489.663 1516.82 468.683 1646.67 456.722 1765.77C451.007 1822.89 447.528 1876.82 447.822 1926" stroke="#006A90" stroke-opacity="0.6" stroke-width="1.16267"/>
<path d="M528.263 1.21979C586.628 128.172 617.174 299.49 616.347 484.883C614.955 777.895 558.12 1090.57 503.54 1395.37C478.006 1538.03 454.215 1670.15 440.226 1790.81C434.724 1838.48 430.881 1883.87 429.629 1926" stroke="#006A90" stroke-opacity="0.6" stroke-width="1.16267"/>
<path d="M571.335 1.21979C617.299 129.819 638.237 294.89 632.703 470.965C622.961 776.74 557.611 1099.13 495.762 1412.5C467.076 1558.2 440.528 1692.42 424.7 1814.54C419.656 1853.44 415.783 1890.78 413.602 1926" stroke="#006A90" stroke-opacity="0.6" stroke-width="1.16267"/>
<path d="M608.243 1.21979C644.291 130.14 657.736 289.606 648.443 457.897C630.767 775.687 557.249 1107.32 488.534 1428.75C456.782 1577.28 427.817 1713.5 410.144 1836.94C405.742 1867.72 402.107 1897.51 399.51 1926" stroke="#006A90" stroke-opacity="0.6" stroke-width="1.16267"/>
<path d="M640.237 1.21979C668.265 129.642 675.778 284.05 663.451 445.744C638.281 774.759 557.074 1115.11 481.841 1444.09C447.235 1595.26 415.958 1733.3 396.572 1857.95C392.955 1881.26 389.79 1904 387.205 1926" stroke="#006A90" stroke-opacity="0.6" stroke-width="1.16267"/>
<path d="M668.16 1.21979C689.627 128.654 692.377 278.525 677.621 434.538C645.418 773.989 557.042 1122.52 475.658 1458.52C438.449 1612.14 404.967 1751.83 383.969 1877.57C381.225 1894.03 378.715 1910.19 376.486 1926" stroke="#006A90" stroke-opacity="0.6" stroke-width="1.16267"/>
<path d="M692.632 1.21979C708.729 127.386 707.642 273.193 690.888 424.285C652.109 773.353 557.074 1129.52 469.975 1471.98C430.339 1627.83 394.787 1769 372.351 1895.75C370.541 1905.95 368.826 1916.04 367.215 1926" stroke="#006A90" stroke-opacity="0.6" stroke-width="1.16267"/>
<path d="M718.043 1.21979C728.829 125.344 721.766 266.253 703.184 414.982C658.322 772.875 557.216 1136.09 464.778 1484.42C422.901 1642.3 385.587 1784.86 361.71 1912.45C360.864 1916.99 360.036 1921.51 359.229 1926" stroke="#006A90" stroke-opacity="0.6" stroke-width="1.16267"/>
<path d="M736.608 1.21979C743.641 123.999 734.355 261.698 714.44 406.63C664.005 772.541 557.311 1142.12 460.077 1495.82C416.363 1654.84 377.48 1798.04 352.393 1926" stroke="#006A90" stroke-opacity="0.6" stroke-width="1.16267"/>
<path d="M752.74 1.21979C756.746 122.654 745.65 257.561 724.617 399.244C669.235 772.336 557.43 1147.65 455.863 1506.14C411.898 1661.08 372.812 1800.83 346.588 1926" stroke="#006A90" stroke-opacity="0.6" stroke-width="1.16267"/>
<path d="M766.63 1.21979C768.163 121.377 755.526 253.86 733.669 392.779C673.8 772.207 557.615 1152.68 452.136 1515.34C408.139 1666.7 368.87 1803.34 341.705 1926" stroke="#006A90" stroke-opacity="0.6" stroke-width="1.16267"/>
<path d="M778.408 1.21979C777.957 120.221 764.167 250.659 741.577 387.226C677.851 772.172 557.768 1157.1 448.895 1523.39C404.812 1671.54 365.476 1805.5 337.635 1926" stroke="#006A90" stroke-opacity="0.6" stroke-width="1.16267"/>
<path d="M788.205 1.21979C786.163 119.207 771.436 247.937 748.299 382.552C681.255 772.178 557.873 1160.87 446.144 1530.25C402.161 1675.76 362.742 1807.39 334.328 1926" stroke="#006A90" stroke-opacity="0.6" stroke-width="1.16267"/>
<path d="M796.123 1.21979C792.853 118.349 777.371 245.706 753.819 378.774C684.086 772.23 557.953 1164 443.886 1535.9C399.914 1679.16 360.533 1808.93 331.709 1926" stroke="#006A90" stroke-opacity="0.6" stroke-width="1.16267"/>
<path d="M802.224 1.21979C798.044 117.688 782.029 243.995 758.136 375.853C686.259 772.297 558.088 1166.53 442.131 1540.32C398.267 1681.89 358.864 1810.15 329.727 1926" stroke="#006A90" stroke-opacity="0.6" stroke-width="1.16267"/>
<path d="M806.54 1.21979C801.731 117.213 785.356 242.769 761.223 373.772C687.889 772.361 558.101 1168.26 440.875 1543.49C396.997 1683.77 357.669 1811.02 328.34 1926" stroke="#006A90" stroke-opacity="0.6" stroke-width="1.16267"/>
<path d="M809.12 1.21979C803.927 116.911 787.308 242.015 763.073 372.527C688.765 772.384 558.15 1169.35 440.119 1545.4C396.328 1684.96 357.008 1811.56 327.537 1926" stroke="#006A90" stroke-opacity="0.6" stroke-width="1.16267"/>
</g>
</g>
</g>
</g>
<defs>
<clipPath id="clip0_1262_13379">
<rect width="891" height="1926" fill="white"/>
</clipPath>
</defs>
</svg>
